<?xml version="1.0" standalone="no"?><!DOCTYPE svg PUBLIC "-//W3C//DTD SVG 1.1//EN" "http://www.w3.org/Graphics/SVG/1.1/DTD/svg11.dtd"><svg class="icon" width="200px" height="200.00px" viewBox="0 0 1024 1024" version="1.1" xmlns="http://www.w3.org/2000/svg"><path d="M0 0m0 0l1024 0q0 0 0 0l0 1024q0 0 0 0l-1024 0q0 0 0 0l0-1024q0 0 0 0Z" fill="#E8EFF8" /><path d="M791.272727 232.727273a23.272727 23.272727 0 0 0-23.272727-23.272728H232.727273a23.272727 23.272727 0 0 0-23.272728 23.272728v535.272727a23.272727 23.272727 0 0 0 23.272728 23.272727h535.272727a23.272727 23.272727 0 0 0 23.272727-23.272727V232.727273z" fill="#A0BFF7" /><path d="M337.454545 506.181818v203.636364h69.818182v-168.727273H605.090909v168.727273h69.818182V302.545455h-69.818182v168.727272h-197.818182V302.545455h-69.818182v203.636363z" fill="#247ADE" /></svg>